<svg xmlns="http://www.w3.org/2000/svg" width="1480" height="860" viewBox="0 0 1480 860">
<rect x="0" y="0" width="100%" height="100%" fill="#f8fafc"/>
<rect x="22" y="22" width="1436" height="816" rx="28" fill="#ffffff" stroke="#e2e8f0" stroke-width="2"/>
<text x="72" y="86" font-family="Inter, Arial, sans-serif" font-size="34" font-weight="700" fill="#0f172a">Step 03: Workspace First</text>
<text x="72" y="122" font-family="Inter, Arial, sans-serif" font-size="19" fill="#475569">The runtime starts with a compact index, a dossier folder, and one prepared incoming artifact.</text>
<path d="M 220 243.0 L 285 209.0" fill="none" stroke="#1971c2" stroke-width="2.4" opacity="0.2"/>
<polygon points="285,209.0 273,202.0 273,216.0" fill="#1971c2" opacity="0.2"/>
<path d="M 455.0 273 L 455.0 350 L 810.0 350 L 810.0 495" fill="none" stroke="#e8590c" stroke-width="2.4" opacity="0.2"/>
<polygon points="810.0,495 803.0,483 817.0,483" fill="#e8590c" opacity="0.2"/>
<path d="M 560 273 L 560 365 L 1147 365 L 1147.5 495" fill="none" stroke="#e8590c" stroke-width="2.4" stroke-dasharray="8 8" opacity="0.2"/>
<polygon points="1147.5,495 1140.5,483 1154.5,483" fill="#e8590c" opacity="0.2"/>
<path d="M 625 209.0 L 775 179.0" fill="none" stroke="#fb923c" stroke-width="2.4" stroke-dasharray="8 8" opacity="0.2"/>
<polygon points="775,179.0 763,172.0 763,186.0" fill="#fb923c" opacity="0.2"/>
<path d="M 1055 179.0 L 1115 150.0" fill="none" stroke="#64748b" stroke-width="2.4" stroke-dasharray="8 8" opacity="0.2"/>
<polygon points="1115,150.0 1103,143.0 1103,157.0" fill="#64748b" opacity="0.2"/>
<path d="M 915.0 238 L 915.0 430 L 477.5 430 L 477.5 495" fill="none" stroke="#1d4ed8" stroke-width="2.4" opacity="0.2"/>
<polygon points="477.5,495 470.5,483 484.5,483" fill="#1d4ed8" opacity="0.2"/>
<path d="M 955 238 L 955 430 L 1147 430 L 1147.5 495" fill="none" stroke="#1d4ed8" stroke-width="2.4" opacity="0.2"/>
<polygon points="1147.5,495 1140.5,483 1154.5,483" fill="#1d4ed8" opacity="0.2"/>
<path d="M 1025 544.0 L 920 544.0" fill="none" stroke="#16a34a" stroke-width="2.4" stroke-dasharray="8 8" opacity="0.2"/>
<polygon points="920,544.0 932,537.0 932,551.0" fill="#16a34a" opacity="0.2"/>
<ellipse cx="145.0" cy="243.0" rx="75.0" ry="43.0" fill="#e7f5ff" stroke="#1971c2" stroke-width="2.6" opacity="0.2"/>
<text x="145.0" y="250.0" text-anchor="middle" font-family="Inter, Arial, sans-serif" font-size="20" fill="#0f172a" opacity="0.2">Student</text>
<rect x="285" y="145" width="340" height="128" rx="24" fill="#fff7ed" stroke="#e8590c" stroke-width="2.6" opacity="0.2"/>
<text x="455.0" y="205.0" text-anchor="middle" font-family="Inter, Arial, sans-serif" font-size="20" fill="#0f172a" opacity="0.2">ProfessorWorkspaceAgent</text>
<text x="455.0" y="227.0" text-anchor="middle" font-family="Inter, Arial, sans-serif" font-size="20" fill="#0f172a" opacity="0.2">create_deep_agent(...)</text>
<rect x="775" y="120" width="280" height="118" rx="24" fill="#eff6ff" stroke="#1d4ed8" stroke-width="2.6" opacity="0.2"/>
<text x="915.0" y="175.0" text-anchor="middle" font-family="Inter, Arial, sans-serif" font-size="20" fill="#0f172a" opacity="0.2">AddProfessorSubagent</text>
<text x="915.0" y="197.0" text-anchor="middle" font-family="Inter, Arial, sans-serif" font-size="20" fill="#0f172a" opacity="0.2">(task tool)</text>
<rect x="1115" y="108" width="270" height="84" rx="24" fill="#f8fafc" stroke="#64748b" stroke-width="2.6" stroke-dasharray="8 8" opacity="0.2"/>
<text x="1250.0" y="146.0" text-anchor="middle" font-family="Inter, Arial, sans-serif" font-size="20" fill="#0f172a" opacity="0.2">SKILL.md</text>
<text x="1250.0" y="168.0" text-anchor="middle" font-family="Inter, Arial, sans-serif" font-size="20" fill="#0f172a" opacity="0.2">add-professor-from-incoming</text>
<rect x="270" y="385" width="1120" height="360" rx="24" fill="#f8fafc" stroke="#94a3b8" stroke-width="2.6" stroke-dasharray="8 8" opacity="1.0"/>
<text x="830.0" y="572.0" text-anchor="middle" font-family="Inter, Arial, sans-serif" font-size="20" fill="#0f172a" opacity="1.0">FilesystemBackend runtime root</text>
<rect x="355" y="495" width="245" height="98" rx="24" fill="#fef3c7" stroke="#d97706" stroke-width="2.6" opacity="1.0"/>
<text x="477.5" y="540.0" text-anchor="middle" font-family="Inter, Arial, sans-serif" font-size="20" fill="#0f172a" opacity="1.0">/incoming/*.md</text>
<text x="477.5" y="562.0" text-anchor="middle" font-family="Inter, Arial, sans-serif" font-size="20" fill="#0f172a" opacity="1.0">prepared artifact</text>
<rect x="700" y="495" width="220" height="98" rx="24" fill="#ecfdf5" stroke="#16a34a" stroke-width="2.6" opacity="1.0"/>
<text x="810.0" y="540.0" text-anchor="middle" font-family="Inter, Arial, sans-serif" font-size="20" fill="#0f172a" opacity="1.0">/professors.md</text>
<text x="810.0" y="562.0" text-anchor="middle" font-family="Inter, Arial, sans-serif" font-size="20" fill="#0f172a" opacity="1.0">compact index</text>
<rect x="1025" y="495" width="245" height="98" rx="24" fill="#eef2ff" stroke="#4f46e5" stroke-width="2.6" opacity="1.0"/>
<text x="1147.5" y="540.0" text-anchor="middle" font-family="Inter, Arial, sans-serif" font-size="20" fill="#0f172a" opacity="1.0">/professors/*.md</text>
<text x="1147.5" y="562.0" text-anchor="middle" font-family="Inter, Arial, sans-serif" font-size="20" fill="#0f172a" opacity="1.0">full dossiers</text>
</svg>