<svg xmlns="http://www.w3.org/2000/svg" width="1480" height="860" viewBox="0 0 1480 860">
<rect x="0" y="0" width="100%" height="100%" fill="#f8fafc"/>
<rect x="22" y="22" width="1436" height="816" rx="28" fill="#ffffff" stroke="#e2e8f0" stroke-width="2"/>
<text x="72" y="86" font-family="Inter, Arial, sans-serif" font-size="34" font-weight="700" fill="#0f172a">Step 02: Prompt Layers</text>
<text x="72" y="122" font-family="Inter, Arial, sans-serif" font-size="19" fill="#475569">System prompts stay small; the longer add workflow lives in a skill.</text>
<path d="M 220 243.0 L 300 214.0" fill="none" stroke="#1971c2" stroke-width="2.4" opacity="0.2"/>
<polygon points="300,214.0 288,207.0 288,221.0" fill="#1971c2" opacity="0.2"/>
<path d="M 465.0 278 L 465.0 360 L 500.0 360 L 500.0 485" fill="none" stroke="#e8590c" stroke-width="2.4" opacity="0.2"/>
<polygon points="500.0,485 493.0,473 507.0,473" fill="#e8590c" opacity="0.2"/>
<path d="M 560 278 L 560 390 L 845 390 L 845.0 485" fill="none" stroke="#e8590c" stroke-width="2.4" stroke-dasharray="8 8" opacity="0.2"/>
<polygon points="845.0,485 838.0,473 852.0,473" fill="#e8590c" opacity="0.2"/>
<path d="M 630 214.0 L 780 164.0" fill="none" stroke="#fb923c" stroke-width="2.4" stroke-dasharray="8 8" opacity="1.0"/>
<polygon points="780,164.0 768,157.0 768,171.0" fill="#fb923c" opacity="1.0"/>
<path d="M 1050 164.0 L 1125 129.0" fill="none" stroke="#64748b" stroke-width="2.4" stroke-dasharray="8 8" opacity="1.0"/>
<polygon points="1125,129.0 1113,122.0 1113,136.0" fill="#64748b" opacity="1.0"/>
<path d="M 915.0 223 L 915.0 245 L 1135 245 L 1090 295.0" fill="none" stroke="#1d4ed8" stroke-width="2.4" opacity="0.2"/>
<polygon points="1090,295.0 1083,283.0 1097,283.0" fill="#1d4ed8" opacity="0.2"/>
<path d="M 1090 295.0 L 1020 295 L 1020 533 L 970 533.0" fill="none" stroke="#7c3aed" stroke-width="2.4" opacity="0.2"/>
<polygon points="970,533.0 982,526.0 982,540.0" fill="#7c3aed" opacity="0.2"/>
<path d="M 720 533.0 L 620 533.0" fill="none" stroke="#16a34a" stroke-width="2.4" stroke-dasharray="8 8" opacity="0.2"/>
<polygon points="620,533.0 632,526.0 632,540.0" fill="#16a34a" opacity="0.2"/>
<ellipse cx="145.0" cy="243.0" rx="75.0" ry="43.0" fill="#e7f5ff" stroke="#1971c2" stroke-width="2.6" opacity="0.2"/>
<text x="145.0" y="250.0" text-anchor="middle" font-family="Inter, Arial, sans-serif" font-size="20" fill="#0f172a" opacity="0.2">Student</text>
<rect x="300" y="150" width="330" height="128" rx="24" fill="#fff7ed" stroke="#e8590c" stroke-width="2.6" opacity="1.0"/>
<text x="465.0" y="210.0" text-anchor="middle" font-family="Inter, Arial, sans-serif" font-size="20" fill="#0f172a" opacity="1.0">ProfessorWorkspaceAgent</text>
<text x="465.0" y="232.0" text-anchor="middle" font-family="Inter, Arial, sans-serif" font-size="20" fill="#0f172a" opacity="1.0">create_deep_agent(...)</text>
<rect x="780" y="105" width="270" height="118" rx="24" fill="#eff6ff" stroke="#1d4ed8" stroke-width="2.6" opacity="1.0"/>
<text x="915.0" y="160.0" text-anchor="middle" font-family="Inter, Arial, sans-serif" font-size="20" fill="#0f172a" opacity="1.0">AddProfessorSubagent</text>
<text x="915.0" y="182.0" text-anchor="middle" font-family="Inter, Arial, sans-serif" font-size="20" fill="#0f172a" opacity="1.0">(task tool)</text>
<rect x="1125" y="88" width="250" height="82" rx="24" fill="#f8fafc" stroke="#64748b" stroke-width="2.6" stroke-dasharray="8 8" opacity="1.0"/>
<text x="1250.0" y="125.0" text-anchor="middle" font-family="Inter, Arial, sans-serif" font-size="20" fill="#0f172a" opacity="1.0">SKILL.md</text>
<text x="1250.0" y="147.0" text-anchor="middle" font-family="Inter, Arial, sans-serif" font-size="20" fill="#0f172a" opacity="1.0">add-professor-from-url</text>
<rect x="1090" y="220" width="305" height="150" rx="24" fill="#f5f3ff" stroke="#7c3aed" stroke-width="2.6" opacity="0.2"/>
<text x="1242.5" y="269.0" text-anchor="middle" font-family="Inter, Arial, sans-serif" font-size="20" fill="#0f172a" opacity="0.2">Small helper tools</text>
<text x="1242.5" y="291.0" text-anchor="middle" font-family="Inter, Arial, sans-serif" font-size="20" fill="#0f172a" opacity="0.2">extract_image_urls</text>
<text x="1242.5" y="313.0" text-anchor="middle" font-family="Inter, Arial, sans-serif" font-size="20" fill="#0f172a" opacity="0.2">ocr_images_to_professor_markdown</text>
<text x="1242.5" y="335.0" text-anchor="middle" font-family="Inter, Arial, sans-serif" font-size="20" fill="#0f172a" opacity="0.2">rebuild_professors_index</text>
<rect x="305" y="415" width="760" height="265" rx="24" fill="#f8fafc" stroke="#94a3b8" stroke-width="2.6" stroke-dasharray="8 8" opacity="0.2"/>
<text x="685.0" y="554.5" text-anchor="middle" font-family="Inter, Arial, sans-serif" font-size="20" fill="#0f172a" opacity="0.2">FilesystemBackend runtime root</text>
<rect x="380" y="485" width="240" height="96" rx="24" fill="#ecfdf5" stroke="#16a34a" stroke-width="2.6" opacity="0.2"/>
<text x="500.0" y="529.0" text-anchor="middle" font-family="Inter, Arial, sans-serif" font-size="20" fill="#0f172a" opacity="0.2">/professors.md</text>
<text x="500.0" y="551.0" text-anchor="middle" font-family="Inter, Arial, sans-serif" font-size="20" fill="#0f172a" opacity="0.2">compact index</text>
<rect x="720" y="485" width="250" height="96" rx="24" fill="#eef2ff" stroke="#4f46e5" stroke-width="2.6" opacity="0.2"/>
<text x="845.0" y="529.0" text-anchor="middle" font-family="Inter, Arial, sans-serif" font-size="20" fill="#0f172a" opacity="0.2">/professors/*.md</text>
<text x="845.0" y="551.0" text-anchor="middle" font-family="Inter, Arial, sans-serif" font-size="20" fill="#0f172a" opacity="0.2">full dossiers</text>
<rect x="1110" y="540" width="290" height="92" rx="24" fill="#fffbeb" stroke="#f59e0b" stroke-width="2.6" stroke-dasharray="8 8" opacity="0.2"/>
<text x="1255.0" y="582.0" text-anchor="middle" font-family="Inter, Arial, sans-serif" font-size="20" fill="#0f172a" opacity="0.2">Appendix only</text>
<text x="1255.0" y="604.0" text-anchor="middle" font-family="Inter, Arial, sans-serif" font-size="20" fill="#0f172a" opacity="0.2">Sandbox backend -&gt; execute</text>
</svg>