<svg xmlns="http://www.w3.org/2000/svg" width="1280" height="720" viewBox="0 0 1280 720" fill="none">
  <defs>
    <marker id="arrowhead" markerWidth="10" markerHeight="10" refX="9" refY="5" orient="auto">
      <path d="M 0 0 L 10 5 L 0 10 z" fill="#64748b"/>
    </marker>
  </defs>
  <rect x="0" y="0" width="1280" height="720" fill="#f8fafc"/>
  <text x="60" y="66" fill="#0f172a" font-family="Inter, Arial, sans-serif" font-size="34" font-weight="700">Lab 3: Minimal Swarm Handoffs</text>
  <text x="60" y="102" fill="#475569" font-family="Inter, Arial, sans-serif" font-size="18">Front desk transfers ownership, specialists keep control, and active_agent persists by thread_id.</text>
  <polyline points="200,310.0 250,310.0" fill="none" stroke="#64748b" stroke-width="2.4" stroke-linecap="round" stroke-linejoin="round" marker-end="url(#arrowhead)"/>
  <polyline points="490,310.0 540,310.0 540,170.0 590,170.0" fill="none" stroke="#e8590c" stroke-width="2.4" stroke-linecap="round" stroke-linejoin="round" marker-end="url(#arrowhead)"/>
  <polyline points="490,310.0 540,310.0 540,450.0 590,450.0" fill="none" stroke="#e8590c" stroke-width="2.4" stroke-linecap="round" stroke-linejoin="round" marker-end="url(#arrowhead)"/>
  <polyline points="870,170.0 920,170.0 920,310.0 970,310.0" fill="none" stroke="#1d4ed8" stroke-width="2.4" stroke-linecap="round" stroke-linejoin="round" marker-end="url(#arrowhead)"/>
  <polyline points="870,450.0 920,450.0 920,310.0 970,310.0" fill="none" stroke="#15803d" stroke-width="2.4" stroke-linecap="round" stroke-linejoin="round" marker-end="url(#arrowhead)"/>
  <polyline points="680,230 680,310 680,390" fill="none" stroke="#fb923c" stroke-width="2.4" stroke-linecap="round" stroke-linejoin="round" marker-end="url(#arrowhead)" stroke-dasharray="8 6"/>
  <polyline points="780,390 780,310 780,230" fill="none" stroke="#fb923c" stroke-width="2.4" stroke-linecap="round" stroke-linejoin="round" marker-end="url(#arrowhead)" stroke-dasharray="8 6"/>
  <ellipse cx="130.0" cy="310.0" rx="70.0" ry="40.0" fill="#e7f5ff" stroke="#1971c2" stroke-width="2.6"/>
  <rect x="250" y="250" width="240" height="120" rx="22" fill="#fff7ed" stroke="#e8590c" stroke-width="2.6"/>
  <rect x="590" y="110" width="280" height="120" rx="22" fill="#eff6ff" stroke="#1d4ed8" stroke-width="2.6"/>
  <rect x="590" y="390" width="280" height="120" rx="22" fill="#ecfdf5" stroke="#15803d" stroke-width="2.6"/>
  <rect x="970" y="250" width="240" height="120" rx="22" fill="#f0fdf4" stroke="#16a34a" stroke-width="2.6"/>
  <rect x="470" y="585" width="360" height="80" rx="22" fill="#fffbeb" stroke="#f59e0b" stroke-width="2.6" stroke-dasharray="8 6"/>
  <rect x="520" y="255" width="180" height="70" rx="22" fill="#fff7ed" stroke="#fb923c" stroke-width="2.6" stroke-dasharray="8 6"/>
  <text x="130.0" y="310.0" fill="#0f172a" font-family="Inter, Arial, sans-serif" font-size="18" text-anchor="middle" dominant-baseline="middle"><tspan x="130.0" dy="0">Student</tspan></text>
  <text x="370.0" y="310.0" fill="#0f172a" font-family="Inter, Arial, sans-serif" font-size="18" text-anchor="middle" dominant-baseline="middle"><tspan x="370.0" dy="0">FrontDeskAgent</tspan></text>
  <text x="730.0" y="170.0" fill="#0f172a" font-family="Inter, Arial, sans-serif" font-size="18" text-anchor="middle" dominant-baseline="middle"><tspan x="730.0" dy="0">ProfessorLookupAgent</tspan></text>
  <text x="730.0" y="450.0" fill="#0f172a" font-family="Inter, Arial, sans-serif" font-size="18" text-anchor="middle" dominant-baseline="middle"><tspan x="730.0" dy="0">ResearchMatchAgent</tspan></text>
  <text x="1090.0" y="310.0" fill="#0f172a" font-family="Inter, Arial, sans-serif" font-size="18" text-anchor="middle" dominant-baseline="middle"><tspan x="1090.0" dy="0">Neo4jQueryService</tspan></text>
  <text x="650.0" y="613.0" fill="#0f172a" font-family="Inter, Arial, sans-serif" font-size="18" text-anchor="middle" dominant-baseline="middle"><tspan x="650.0" dy="0">InMemorySaver</tspan><tspan x="650.0" dy="24">active_agent + thread_id</tspan></text>
  <text x="610.0" y="278.0" fill="#0f172a" font-family="Inter, Arial, sans-serif" font-size="18" text-anchor="middle" dominant-baseline="middle"><tspan x="610.0" dy="0">Handoff tools update</tspan><tspan x="610.0" dy="24">active_agent</tspan></text>
</svg>
